<?xml version="1.0" encoding="utf-8"?>
<!-- Generator: Adobe Illustrator 21.1.0, SVG Export Plug-In . SVG Version: 6.00 Build 0)  -->
<svg version="1.1" id="Layer_1" xmlns="http://www.w3.org/2000/svg" xmlns:xlink="http://www.w3.org/1999/xlink" x="0px" y="0px"
	 viewBox="0 0 207 200.2" style="enable-background:new 0 0 207 200.2;" xml:space="preserve">
<style type="text/css">
	.st0{fill:#A6D16A;}
	.st1{fill:#1484C6;}
	.st2{fill:#3D4C56;}
	.st3{fill:#FFFFFF;}
	.st4{fill:#E6E6E5;}
	.st5{fill:#91D4F2;}
	.st6{fill:#E13336;}
	.st7{fill:#B63132;}
	.st8{fill:#F3F3F3;}
</style>
<g>
	<g>
		<g>
			<g>
				<path class="st0" d="M145.8,90.7c9.1-19.8,25-34.5,25.8-34.6c0.9-0.2,0.6,3.4,0.4,3.7c-0.2,0.3-15.5,17.8-20.4,38.9
					C151.4,99.6,145.1,92.4,145.8,90.7z"/>
			</g>
		</g>
		<g>
			<g>
				<path class="st0" d="M179.1,53.7c9.1,8.6,2.6,21.6-0.5,22.5c0.3-5.1-1.3-9.1-3.1-11.9c-0.2-0.3,0.4-1.8,0.2-2.1
					c-0.1-0.2-1,0.8-1.1,0.7c-1.7-2.4-3.3-3.6-3.3-3.9C171.4,58.5,178.3,53,179.1,53.7z"/>
			</g>
		</g>
		<g>
			<g>
				<path class="st0" d="M176.3,49.8c-10.3-7.2-20.2,0.9-21.5,3.6c1.4,0,4.5-0.1,7.8,0.4c0.2,0,2.1-0.8,2.3-0.8
					c0.4,0.1-0.7,1.1-0.3,1.2c2.5,0.7,4.9,2,6.3,4.3C171.3,59.1,177.4,50.6,176.3,49.8z"/>
			</g>
		</g>
		<g>
			<g>
				<path class="st0" d="M179.2,45.8c-3.9-12.6-17.7-9.4-18.3-9.3c-0.2,0,1,1.3,2.8,3c0.2,0.2,1.5,0.3,1.7,0.5
					c0.2,0.2-0.6,0.6-0.4,0.8c3.4,3.4,7.7,8.1,8.5,11C173.8,52.7,179.5,46.8,179.2,45.8z"/>
			</g>
		</g>
		<g>
			<g>
				<path class="st0" d="M176.7,44.9c0.7-1.5,1.2-3.7,1.6-6c0-0.3,0.9,0.3,1,0c0-0.3-0.7-1.5-0.7-1.8c0.4-3.6,0.5-7,0.4-7.7
					c6.7,2.9,7.7,15.9,6.3,20.8C184.5,52.2,175.7,46.9,176.7,44.9z"/>
			</g>
		</g>
		<g>
			<g>
				<path class="st0" d="M181.1,49.2c16.8-8.1,26.2,3.7,25.9,9.6c-2.6-1-5.2-1.7-7.8-2.3c-0.4-0.1-1.8-1.8-2.2-1.8
					c-0.4-0.1,0.1,1.4-0.4,1.3c-8-1.4-14.7-1-15.3-1C180.4,55.1,179.9,49.7,181.1,49.2z"/>
			</g>
		</g>
		<g>
			<g>
				<path class="st0" d="M179.4,60c1.4,0,4.2,1.3,8.5,4.6c0.2,0.1,0.6-0.9,0.8-0.7c0.4,0.3,0.6,1.9,1,2.2c0.8,0.7,1.7,1.4,2.6,2.3
					c0.2,0.2,0.4-1.2,0.7-1c0.3,0.3,0.5,2.1,0.8,2.4c1.5,1.4,3.1,2.9,4.8,4.7c3.9-19.1-17.5-23.8-18.1-23.9
					C179.8,50.5,178.3,60,179.4,60z"/>
			</g>
		</g>
		<g>
			<g>
				<polygon class="st0" points="177.7,46.5 173.2,50.9 171,58.6 177.8,63.6 184.2,58 186.7,52 				"/>
			</g>
		</g>
	</g>
	<g>
		<g>
			<g>
				<path class="st0" d="M61.2,90.7c-9.1-19.8-25-34.5-25.8-34.6c-0.9-0.2-0.6,3.4-0.4,3.7c0.2,0.3,15.5,17.8,20.4,38.9
					C55.5,99.6,61.9,92.4,61.2,90.7z"/>
			</g>
		</g>
		<g>
			<g>
				<path class="st0" d="M27.9,53.7c-9.1,8.6-2.6,21.6,0.5,22.5c-0.3-5.1,1.3-9.1,3.1-11.9c0.2-0.3-0.4-1.8-0.2-2.1
					c0.1-0.2,1,0.8,1.1,0.7c1.7-2.4,3.3-3.6,3.3-3.9C35.6,58.5,28.7,53,27.9,53.7z"/>
			</g>
		</g>
		<g>
			<g>
				<path class="st0" d="M30.7,49.8c10.3-7.2,20.2,0.9,21.5,3.6c-1.4,0-4.5-0.1-7.8,0.4c-0.2,0-2.1-0.8-2.3-0.8
					c-0.5,0.1,0.7,1.1,0.3,1.2c-2.5,0.7-4.9,2-6.3,4.3C35.7,59.1,29.6,50.6,30.7,49.8z"/>
			</g>
		</g>
		<g>
			<g>
				<path class="st0" d="M27.8,45.8c3.9-12.6,17.7-9.4,18.3-9.3c0.2,0-1,1.3-2.8,3c-0.2,0.2-1.5,0.3-1.7,0.5
					c-0.2,0.2,0.6,0.6,0.4,0.8c-3.4,3.4-7.7,8.1-8.5,11C33.2,52.7,27.5,46.8,27.8,45.8z"/>
			</g>
		</g>
		<g>
			<g>
				<path class="st0" d="M30.3,44.9c-0.7-1.5-1.2-3.7-1.6-6c0-0.3-0.9,0.3-1,0c0-0.3,0.7-1.5,0.7-1.8c-0.4-3.6-0.5-7-0.4-7.7
					c-6.7,2.9-7.7,15.9-6.3,20.8C22.5,52.2,31.3,46.9,30.3,44.9z"/>
			</g>
		</g>
		<g>
			<g>
				<path class="st0" d="M25.9,49.2C9.1,41.1-0.3,52.9,0,58.9c2.6-1,5.2-1.7,7.8-2.3c0.4-0.1,1.8-1.8,2.2-1.8
					c0.4-0.1-0.1,1.4,0.4,1.3c8-1.4,14.7-1,15.3-1C26.6,55.1,27.1,49.7,25.9,49.2z"/>
			</g>
		</g>
		<g>
			<g>
				<path class="st0" d="M27.6,60c-1.4,0-4.2,1.3-8.5,4.6c-0.2,0.1-0.6-0.9-0.8-0.7c-0.4,0.3-0.6,1.9-1,2.2
					c-0.8,0.7-1.7,1.4-2.6,2.3c-0.2,0.2-0.4-1.2-0.7-1c-0.3,0.3-0.5,2.1-0.8,2.4c-1.5,1.4-3.1,2.9-4.8,4.7
					C4.5,55.3,26,50.6,26.6,50.6C27.2,50.5,28.7,60,27.6,60z"/>
			</g>
		</g>
		<g>
			<g>
				<polygon class="st0" points="29.3,46.5 33.8,50.9 36,58.6 29.2,63.6 22.7,58 20.3,52 				"/>
			</g>
		</g>
	</g>
	<g>
		<g>
			<path class="st1" d="M89.5,140.5c-21-13.4-63-26.4-55.8-4.1c7.9,24.2,47.8,25.6,66.5,25.6c22.4,0,58,1.1,70.4-15.6
				c0.8-1.1,0.3-15.4-25.9-4.5C130,147.9,109.9,153.5,89.5,140.5z"/>
		</g>
	</g>
	<g>
		<g>
			<path class="st2" d="M103.2,26c-1.1,0-2-0.9-2-2V9.2c0-1.1,0.9-2,2-2s2,0.9,2,2v14.8C105.3,25.1,104.3,26,103.2,26z"/>
		</g>
	</g>
	<g>
		<g>
			<path class="st3" d="M118.2,23.3c-10.2-2.8-20.2-2.9-30.1,0l-8.1,29.7h46.3L118.2,23.3z"/>
		</g>
	</g>
	<g>
		<g>
			<path class="st2" d="M120.7,33.8l-2.8-9.8c-10.1-3.6-20.1-3.7-30.1,0L85,33.8C96.6,31.3,108.5,31.5,120.7,33.8z"/>
		</g>
	</g>
	<g>
		<g>
			<polygon class="st4" points="116.7,22.7 103.4,20.6 103.4,41.2 122.8,41.2 			"/>
		</g>
	</g>
	<g>
		<g>
			<path class="st2" d="M126.4,55.1H80.1c-0.6,0-1.2-0.3-1.6-0.8c-0.4-0.5-0.5-1.2-0.3-1.8l8.1-29.7c0.2-0.7,0.7-1.2,1.4-1.4
				c10-2.9,20.5-2.9,31.2,0c0.7,0.2,1.2,0.7,1.4,1.4l8.1,29.7c0.2,0.6,0,1.3-0.3,1.8C127.6,54.8,127,55.1,126.4,55.1z M82.7,51h40.9
				l-7.1-26c-9.2-2.3-18.2-2.3-26.7,0L82.7,51z"/>
		</g>
	</g>
	<g>
		<g>
			<path class="st3" d="M133.6,43.6c-19.5-3.7-39.8-3.6-60.7,0l-16.4,60.1H150L133.6,43.6z"/>
		</g>
	</g>
	<g>
		<g>
			<polygon class="st2" points="139.4,69.7 67,69.7 68.6,61.3 137.8,61.3 			"/>
		</g>
	</g>
	<g>
		<g>
			<polygon class="st4" points="133.6,43.6 103.4,40.3 103.4,92 147.2,92 			"/>
		</g>
	</g>
	<g>
		<g>
			<path class="st2" d="M150,105.8H56.4c-0.6,0-1.2-0.3-1.6-0.8c-0.4-0.5-0.5-1.2-0.3-1.8l16.4-60.1c0.2-0.8,0.8-1.3,1.6-1.5
				c21.5-3.7,42.1-3.7,61.4,0c0.8,0.1,1.4,0.7,1.6,1.5l16.4,60.1c0.2,0.6,0,1.3-0.3,1.8C151.2,105.5,150.6,105.8,150,105.8z
				 M59.1,101.7h88.2l-15.4-56.3c-18.1-3.3-37.4-3.3-57.5,0L59.1,101.7z"/>
		</g>
	</g>
	<g>
		<g>
			<g>
				<path class="st3" d="M103.5,56.2c-3.1,1.4-52.9,43.4-55.8,52c0,0,24.2,55.1,26.1,55.1H103h31c1.8,0,25.6-55.1,25.6-55.1
					C156.7,99.4,106.5,57.7,103.5,56.2z"/>
			</g>
		</g>
		<g>
			<g>
				<path class="st4" d="M103.4,56.2v98.5l35.6,1.4l21.7-48.4C150.2,93.1,127.3,73.6,103.4,56.2z"/>
			</g>
		</g>
		<g>
			<g>
				<path class="st2" d="M103.5,98.9c0,0-48.6,28.5-46.2,35.2L70,160.4h33.4h33.4l12.8-26.3C152.1,127.5,103.5,98.9,103.5,98.9z"/>
			</g>
		</g>
		<g>
			<g>
				<path class="st2" d="M134,166.4H73.7c-1.8,0-2.5-0.4-15.7-29.2c-6.2-13.6-12.3-27.7-12.3-27.8c-0.2-0.5-0.2-1.1-0.1-1.6
					c3.1-10.3,54-52.1,56.9-53.5c0.6-0.3,1.2-0.3,1.8,0c3.2,1.5,54.3,43.7,57.3,53.4c0.2,0.5,0.1,1-0.1,1.5c-0.1,0.1-6,14.3-12.1,28
					C136.6,166,135.9,166.4,134,166.4z M74.7,162.4h58.4c3.1-4,16.1-34.7,24.3-53.5c-1.1-2.1-6-8.8-26.8-27.1
					c-12.1-10.7-23.6-20.2-27.1-22.8c-3.5,2.6-14.9,11.8-26.8,22.3C55.9,99.5,51.1,106.7,50,108.9C58.3,127.7,71.6,158.4,74.7,162.4
					z"/>
			</g>
		</g>
	</g>
	<g>
		<g>
			<path class="st5" d="M141.2,137.9c-3.7,14.5,12.3,22.5,29.3,8.8c-1.2,5.3-12.5,16.7-20.7,20.7h-97c-12.9-15-17.3-24.8-19.1-30.7
				c22.2,37.7,56.5-1.2,77.9-11C128.4,118,145.2,122.7,141.2,137.9z"/>
		</g>
	</g>
	<g>
		<g>
			<path class="st3" d="M102.8,146.2c0,0,0.4-0.4,1.2-1.1c0.8-0.7,1.9-1.6,3.3-2.7c1.4-1,3.1-2.2,5-3.3c0.9-0.6,2-1.1,3-1.6
				c1.1-0.5,2.2-1,3.3-1.3c1.2-0.4,2.4-0.6,3.6-0.7c1.2-0.1,2.6,0,3.7,0.6c1.2,0.5,2.1,1.5,2.7,2.5c0.5,1,0.7,2.1,0.8,3
				c0.1,0.9-0.1,1.8-0.2,2.5c-0.2,0.7-0.4,1.3-0.6,1.8c-0.2,0.5-0.4,0.8-0.6,1.1c-0.2,0.2-0.2,0.4-0.2,0.4s0-0.1,0.1-0.4
				c0.1-0.3,0.1-0.7,0.2-1.2c0.1-1,0.2-2.4-0.1-4c-0.2-0.8-0.4-1.6-0.9-2.3c-0.5-0.7-1.1-1.3-1.9-1.6c-1.6-0.7-3.9-0.5-6,0.1
				c-1.1,0.3-2.1,0.7-3.2,1.1c-1,0.4-2,0.9-3,1.3c-1,0.5-1.9,1-2.8,1.4c-0.9,0.5-1.7,0.9-2.4,1.3C104.8,145,102.8,146.2,102.8,146.2
				z"/>
		</g>
	</g>
	<g>
		<g>
			<g>
				<g>
					<g>
						<g>
							<path class="st1" d="M9.6,198.2v-20.2c0-1,0.6-1.6,1.6-1.6h1.2c0.9,0,1.5,0.3,2,1l9.4,12.9v-12.3c0-1,0.6-1.6,1.6-1.6h2.1
								c1,0,1.6,0.6,1.6,1.6v20.2c0,1-0.6,1.6-1.6,1.6h-1.2c-0.8,0-1.5-0.3-1.9-1l-9.4-13v12.4c0,1-0.6,1.6-1.6,1.6h-2.1
								C10.2,199.8,9.6,199.3,9.6,198.2z"/>
						</g>
					</g>
				</g>
				<g>
					<g>
						<g>
							<path class="st1" d="M32.9,188.2c0-6.6,5.3-12.1,12.6-12.1c2.8,0,5,0.6,7.1,1.8c0.9,0.6,1,1.4,0.4,2.2l-0.8,1.1
								c-0.6,0.8-1.3,0.9-2.2,0.5c-1.8-0.9-3.1-1-4.4-1c-4.2,0-7.3,3.3-7.3,7.4c0,3.9,2.7,7.4,7.5,7.4c1.4,0,2.9-0.3,4.1-0.9v-3.6
								h-4c-1,0-1.6-0.6-1.6-1.6v-0.7c0-1,0.6-1.6,1.6-1.6h7.4c1,0,1.6,0.6,1.6,1.6v6.7c0,0.8-0.3,1.5-1,2c-2.5,1.9-5.3,2.7-8.1,2.7
								C38.1,200.2,32.9,194.7,32.9,188.2z"/>
						</g>
					</g>
				</g>
			</g>
			<g>
				<g>
					<path class="st1" d="M58.3,189.6v-2.9c0-0.5,0.3-0.8,0.8-0.8h10.2c0.5,0,0.8,0.3,0.8,0.8v2.9c0,0.5-0.3,0.8-0.8,0.8H59.1
						C58.6,190.4,58.3,190.1,58.3,189.6z"/>
				</g>
			</g>
			<g>
				<g>
					<g>
						<path class="st1" d="M73.4,188.2c0-6.5,4.9-12,12.8-12c3,0,5.2,0.9,7.1,2.2c0.8,0.6,0.9,1.4,0.3,2.2l-0.8,1
							c-0.6,0.8-1.3,0.8-2.2,0.3c-1.3-0.8-2.9-1.2-4.4-1.2c-4.7,0-7.5,3.3-7.5,7.4s2.8,7.4,7.5,7.4c1.5,0,3.1-0.4,4.4-1.2
							c0.9-0.5,1.6-0.5,2.2,0.3l0.8,1c0.6,0.9,0.6,1.6-0.2,2.1c-2,1.4-4.2,2.3-7.3,2.3C78.4,200.2,73.4,194.7,73.4,188.2z"/>
					</g>
				</g>
				<g>
					<g>
						<path class="st1" d="M106.2,191.5h-3.1v6.7c0,1-0.6,1.6-1.6,1.6h-2.1c-1,0-1.6-0.6-1.6-1.6v-20.2c0-1,0.6-1.6,1.6-1.6h9
							c5,0,7.7,3.5,7.7,7.8c0,3.4-1.9,6.1-5.2,7c0.3,2.4,1.6,4.7,3.5,4.7c0.7,0,1.1-0.1,1.5-0.3c1-0.3,1.4-0.1,1.8,0.8l0.3,0.7
							c0.4,0.9,0.3,1.7-0.5,2.1c-1.2,0.6-2.5,0.9-4,0.9C107.9,200.2,106.5,194.1,106.2,191.5z M107.7,187.7c1.9,0,3.1-1.5,3.1-3.3
							c0-1.9-1.2-3.4-3.1-3.4h-4.6v6.7H107.7z"/>
					</g>
				</g>
				<g>
					<g>
						<path class="st1" d="M120.8,191v-12.9c0-1,0.6-1.6,1.6-1.6h2.1c1,0,1.6,0.6,1.6,1.6V191c0,3,2,4.6,4.4,4.6
							c2.4,0,4.4-1.6,4.4-4.6v-12.9c0-1,0.6-1.6,1.6-1.6h2.1c1,0,1.6,0.6,1.6,1.6V191c0,6-4.4,9.2-9.7,9.2
							C125.3,200.2,120.8,197,120.8,191z"/>
					</g>
				</g>
				<g>
					<g>
						<path class="st1" d="M145.1,198.2v-20.2c0-1,0.6-1.6,1.6-1.6h2.1c1,0,1.6,0.6,1.6,1.6v20.2c0,1-0.6,1.6-1.6,1.6h-2.1
							C145.7,199.8,145.1,199.3,145.1,198.2z"/>
					</g>
				</g>
				<g>
					<g>
						<path class="st1" d="M154.3,195.2c-0.4-1,0.1-1.7,1.1-2l1.4-0.3c0.9-0.2,1.4,0.2,2,1c0.8,1.2,2.2,2.1,4.2,2.1
							c2.3,0,3.8-1,3.8-2.5c0-1.2-0.9-2.1-2.7-2.7l-3-1.1c-2.8-0.9-6.2-3-6.2-6.6c0-4.3,3.7-6.9,8.3-6.9c3.6,0,6.2,1.6,7.5,4.3
							c0.5,1,0,1.7-1,2l-1.3,0.4c-0.9,0.3-1.5-0.1-2.1-0.9c-0.6-1-1.6-1.5-3-1.5c-1.7,0-3.1,0.8-3.1,2.4c0,0.8,0.4,1.7,2.4,2.5
							l3,1.1c4.6,1.5,6.3,3.9,6.3,6.9c0,4.6-3.9,7-8.9,7C158.7,200.2,155.6,198.3,154.3,195.2z"/>
					</g>
				</g>
				<g>
					<g>
						<path class="st1" d="M181.1,181v5.3h7.5c1,0,1.6,0.6,1.6,1.6v0.9c0,1-0.6,1.6-1.6,1.6h-7.5v5h8.9c1,0,1.6,0.6,1.6,1.6v1.3
							c0,1-0.6,1.6-1.6,1.6h-12.6c-1,0-1.6-0.6-1.6-1.6v-20.2c0-1,0.6-1.6,1.6-1.6H190c1,0,1.6,0.6,1.6,1.6v1.3c0,1-0.6,1.6-1.6,1.6
							H181.1z"/>
					</g>
				</g>
			</g>
		</g>
	</g>
	<g>
		<g>
			<g>
				<polygon class="st6" points="103.5,0 91.3,4.3 93.2,20.4 103.5,26.1 113.9,20.3 115.9,4.3 				"/>
			</g>
		</g>
		<g>
			<g>
				<path class="st7" d="M115.9,4.3L103.5,0v26.1l10.4-5.8L115.9,4.3z M115.9,4.3"/>
			</g>
		</g>
		<g>
			<g>
				<path class="st6" d="M91.3,4.3l1.9,16.1l10.3,5.7V0L91.3,4.3z M91.3,4.3"/>
			</g>
		</g>
		<g>
			<g>
				<path class="st8" d="M106.1,13.7l-2.6-5.4l-2.2,5.4H106.1z M107.1,16h-6.8l-1.5,3.8l-2.8,0.1l7.6-16.9l7.9,16.9h-2.6L107.1,16z
					 M107.1,16"/>
			</g>
		</g>
	</g>
</g>
</svg>
