<svg xmlns="http://www.w3.org/2000/svg" version="1.1" x="0px" y="0px" width="1280px" height="14px" viewBox="0 0 1280 14" enable-background="new 0 0 1280 14" xml:space="preserve"><path fill="#FFFFFF" d="M1279.998 16.374V5.718c-0.855-0.035-1.754-0.063-2.717-0.082 -1.09-0.021-2.25-0.031-3.486-0.027 -0.617 0.007-1.254 0.012-1.91 0.017 -0.611 0.013-1.435-0.699-1.729-0.688 -0.153 0.01-0.309 0.02-0.469 0.028 -0.32 0.019-0.654 0.035-1.002 0.054 -0.696 0.026-1.445 0.057-2.24 0.088 -1.59 0.039-3.364 0.082-5.26 0.129 -3.793 0.076-8.07 0.145-12.345 0.283 -8.547 0.276-17.071 0.838-21.625 2.312 -1.645-0.423-49.159 1.443-66.417-0.37l1.684-0.896c-4.144 0.26-7.213 1.686-12.398 0.783 0.268-0.371 1.668-0.896-0.251-0.949 -2.192 0.311-11.005 1.572-16.496 1.05l4.69-1.009c-21.658-1.176-33.242 2.458-51.405 3.073 0.046-2.643-16.998-3.501-25.505-3.929l0.297-0.373c-25.223-0.327-42.846 2.188-66.204 3.227 -14.5-2.867-49.112-1.201-72.417-2.81 3.564 0.479-0.579 2.06-4.722 2.323 -5.468-0.536-15.117 1.833-14.249-0.59l1.949 0.047c-4.119-2.376-15.36-1.745-24.134-1.811l-1.446 3.17c-22.954-4.608-60.143 1.692-72.669-2.436 -5.537 0.792-12.398 0.783-17.89 1.574l0.297-1.699c-15.346-0.434-23.007-0.646-41.978-0.241l3.869-1.215c-10.7-0.108-13.511 4.898-23.38 4.998l-2.971-2.535c-18.666 0.039-37.56-2.188-56.005 0.112 0.306-0.37 0.854-1.104 3.876-1.207 -8.479-0.063-32.234-1.602-31.021 1.418 -2.152-1.688-19.612 0.183-29.119 1.124l1.568-1.672c-8.507 2.136-8.78 2.721-20.66 3.313 -2.59-0.2-2.496-1.16 0.434-0.982 -8.43-0.655-6.824 1.628-17.852 0.765l4.241-1.067c-9.655-0.129-8.888 0.443-14.202 1.69 -6.07 0.669-18.315-0.424-19.74-1.936 -1.302 0.921-6.588 2.154-12.276 1.719 -0.769-0.571 1.303-0.927 2.347-1.099 -16.146-1.14-24.006 1.942-35.108 0.301 -0.229-0.553-4.342-0.997-14.439-1.723 -0.486-0.149-0.967-0.296-1.332-0.532l1.044-0.174c-2.33-0.154-4.419-0.011-6.384 0.25 -3.221-0.255-11.332 1.228-6.305 1.184 -4.082 0.855-8.349 1.576-14.06 0.642 -2.649 1.084-5.567 2.198-7.213 2.722 -7.066-2.353-20.69-3.623-22.588-5.074 -15.771 0.947-37.156 0.625-47.072 3.793 -4.485 0.406-26.327-1.814-28.468 0.397 -11.302-0.999 6.352-2.037-9.178-1.676l2.095-0.677c-29.971-3.471-48.947 5.299-81.638 1.343 1.12 0.151 1.78 0.292 2.106 0.544 -38.611-2.002-79.568 1.88-117.671-1.296 -10.829-0.642-12.002 0.772-18.612 1.849l-2.347-1.813 -11.301 2.091c-16.022 1.53-27.752-4.446-48.04-1.552l2.62 1.221c-7.289-0.23-23.084 0.719-21.865-0.686 -0.746 0.224-2.391 1.27-5.239 0.634l-0.222-0.947 -17.896 1.624c-13.876-0.686 2.17-3.763-18.08-3.947C7.066 8.024 3.379 8.44 0 8.945v7.429H1279.998z"/></svg>