<svg xmlns="http://www.w3.org/2000/svg" version="1.1" x="0px" y="0px" width="1280px" height="14px" viewBox="0 0 1280 14" enable-background="new 0 0 1280 14" xml:space="preserve"><path fill="#ffffff" d="M0 0v10.656c0.856 0.035 1.754 0.063 2.717 0.082 1.09 0.021 2.25 0.031 3.486 0.027 0.618-0.006 1.254-0.011 1.91-0.016 0.611-0.013 1.435 0.699 1.729 0.688 0.153-0.009 0.309-0.019 0.469-0.028 0.32-0.018 0.654-0.035 1.002-0.053 0.696-0.027 1.445-0.057 2.24-0.088 1.59-0.039 3.364-0.083 5.26-0.13 3.792-0.075 8.07-0.144 12.344-0.282 8.547-0.277 17.071-0.838 21.625-2.312 1.645 0.423 49.159-1.444 66.417 0.37l-1.683 0.896c4.143-0.259 7.212-1.685 12.398-0.782 -0.267 0.371-1.668 0.896 0.251 0.948 2.193-0.31 11.005-1.572 16.496-1.049l-4.691 1.009c21.659 1.175 33.243-2.458 51.406-3.073 -0.046 2.642 16.998 3.5 25.505 3.928l-0.297 0.373c25.223 0.327 42.846-2.188 66.204-3.226 14.5 2.867 49.113 1.201 72.417 2.809 -3.564-0.479 0.579-2.059 4.722-2.323 5.468 0.536 15.117-1.833 14.249 0.589l-1.95-0.046c4.12 2.376 15.361 1.745 24.134 1.81l1.447-3.169c22.954 4.608 60.142-1.693 72.669 2.435 5.537-0.792 12.398-0.783 17.889-1.574l-0.297 1.699c15.346 0.434 23.007 0.647 41.978 0.241l-3.869 1.215c10.7 0.108 13.511-4.898 23.38-4.998l2.97 2.535c18.666-0.039 37.56 2.188 56.005-0.112 -0.305 0.37-0.853 1.104-3.876 1.207 8.48 0.063 32.235 1.602 31.022-1.418 2.152 1.688 19.612-0.183 29.119-1.124l-1.569 1.672c8.507-2.136 8.781-2.721 20.661-3.313 2.589 0.201 2.496 1.16-0.434 0.982 8.43 0.656 6.824-1.627 17.852-0.764l-4.242 1.067c9.656 0.129 8.888-0.443 14.203-1.69 6.07-0.669 18.315 0.424 19.74 1.936 1.302-0.922 6.588-2.155 12.276-1.719 0.769 0.571-1.303 0.926-2.346 1.099 16.146 1.139 24.005-1.943 35.108-0.302 0.229 0.554 4.342 0.998 14.439 1.723 0.487 0.149 0.967 0.296 1.332 0.533l-1.043 0.173c2.33 0.154 4.418 0.011 6.383-0.249 3.221 0.254 11.332-1.228 6.305-1.184 4.082-0.856 8.348-1.577 14.059-0.642 2.65-1.084 5.568-2.198 7.213-2.722 7.067 2.353 20.691 3.624 22.588 5.074 15.772-0.946 37.157-0.624 47.072-3.792 4.486-0.407 26.328 1.814 28.468-0.398 11.302 0.999-6.351 2.037 9.178 1.676l-2.095 0.677c29.971 3.471 48.947-5.299 81.638-1.343 -1.12-0.151-1.78-0.292-2.106-0.544 38.611 2.002 79.568-1.88 117.67 1.296 10.83 0.641 12.002-0.773 18.613-1.849l2.346 1.813 11.301-2.091c16.023-1.53 27.752 4.446 48.04 1.552l-2.62-1.221c7.289 0.231 23.084-0.719 21.865 0.685 0.746-0.223 2.391-1.269 5.24-0.633l0.221 0.947 17.896-1.624c13.876 0.686-2.17 3.763 18.08 3.947 2.803-0.136 6.49-0.553 9.869-1.057V0H0z"/></svg>